<svg width="106" height="117" viewBox="0 0 106 117" fill="none" xmlns="http://www.w3.org/2000/svg">
<path d="M3.072 10.4H14.688C18.72 10.4 21.776 11.328 23.856 13.184C25.968 15.008 27.024 17.712 27.024 21.296C27.024 25.072 25.952 27.936 23.808 29.888C21.696 31.84 18.576 32.816 14.448 32.816H10.8V44H3.072V10.4ZM14.976 26.72C16.448 26.72 17.568 26.272 18.336 25.376C19.104 24.48 19.488 23.184 19.488 21.488C19.488 19.856 19.072 18.624 18.24 17.792C17.44 16.96 16.24 16.544 14.64 16.544H10.8V26.72H14.976ZM52.3538 34.496H35.8417C36.1297 35.936 36.7217 37.008 37.6177 37.712C38.5457 38.416 39.7937 38.768 41.3617 38.768C42.7378 38.768 43.9378 38.544 44.9618 38.096C45.9858 37.648 47.0098 36.88 48.0337 35.792L51.6818 39.248C50.7538 40.816 49.2978 42.08 47.3138 43.04C45.3617 44 43.2337 44.48 40.9297 44.48C37.1537 44.48 34.1937 43.392 32.0497 41.216C29.9057 39.008 28.8337 35.968 28.8337 32.096C28.8337 28.192 29.9057 25.12 32.0497 22.88C34.1937 20.64 37.1377 19.52 40.8818 19.52C44.4657 19.52 47.2657 20.64 49.2818 22.88C51.3298 25.088 52.3538 28.144 52.3538 32.048V34.496ZM45.6338 29.648C45.6338 28.24 45.2018 27.136 44.3377 26.336C43.4737 25.504 42.2897 25.088 40.7857 25.088C39.4418 25.088 38.3377 25.52 37.4737 26.384C36.6097 27.216 36.0337 28.4 35.7457 29.936H45.6338V29.648ZM65.7364 44.48C63.1444 44.48 61.1284 43.808 59.6884 42.464C58.2804 41.12 57.5764 39.232 57.5764 36.8V25.04H53.2084V20H57.5764V13.904L64.2004 11.984H64.3924V20H71.4004V25.04H64.3924V35.744C64.3924 37.024 64.7124 37.968 65.3524 38.576C65.9924 39.152 66.9844 39.44 68.3284 39.44C69.6084 39.44 70.7924 39.232 71.8804 38.816L72.1684 43.424C70.5684 44.128 68.4244 44.48 65.7364 44.48ZM13.392 77.48C9.584 77.48 6.592 76.376 4.416 74.168C2.272 71.928 1.2 68.872 1.2 65C1.2 61.128 2.272 58.088 4.416 55.88C6.592 53.64 9.584 52.52 13.392 52.52C15.696 52.52 17.696 52.952 19.392 53.816C21.12 54.648 22.416 55.848 23.28 57.416L19.2 60.968C18.592 59.944 17.808 59.144 16.848 58.568C15.888 57.992 14.848 57.704 13.728 57.704C11.936 57.704 10.528 58.36 9.504 59.672C8.48 60.952 7.968 62.728 7.968 65C7.968 67.272 8.48 69.064 9.504 70.376C10.528 71.656 11.936 72.296 13.728 72.296C14.848 72.296 15.888 72.008 16.848 71.432C17.808 70.856 18.592 70.056 19.2 69.032L23.28 72.584C22.416 74.152 21.12 75.368 19.392 76.232C17.696 77.064 15.696 77.48 13.392 77.48ZM32.2102 77.48C30.6422 77.48 29.2342 77.144 27.9862 76.472C26.7382 75.8 25.7622 74.888 25.0582 73.736C24.3542 72.552 24.0022 71.224 24.0022 69.752C24.0022 67.288 24.9942 65.4 26.9782 64.088C28.9622 62.776 31.8102 62.12 35.5223 62.12H38.8822V61.16C38.8822 60.072 38.5303 59.224 37.8263 58.616C37.1223 58.008 36.1623 57.704 34.9463 57.704C33.5062 57.704 32.1142 57.944 30.7702 58.424C29.4582 58.904 28.3702 59.56 27.5062 60.392L24.5782 56.504C25.9542 55.288 27.5702 54.328 29.4262 53.624C31.3142 52.888 33.2182 52.52 35.1382 52.52C38.4023 52.52 40.9783 53.288 42.8663 54.824C44.7543 56.328 45.6983 58.392 45.6983 61.016V71.816C45.6983 72.584 45.7623 73.496 45.8902 74.552C46.0182 75.608 46.1623 76.424 46.3222 77H40.2262C40.0343 76.552 39.8903 76.152 39.7942 75.8C39.6982 75.448 39.6182 74.952 39.5542 74.312H39.4582C37.6662 76.424 35.2502 77.48 32.2102 77.48ZM34.0343 72.44C35.4422 72.44 36.5942 72.088 37.4903 71.384C38.4183 70.648 38.8822 69.72 38.8822 68.6V66.584H35.3302C33.8262 66.584 32.6742 66.856 31.8742 67.4C31.0742 67.944 30.6742 68.728 30.6742 69.752C30.6742 70.616 30.9622 71.288 31.5382 71.768C32.1142 72.216 32.9462 72.44 34.0343 72.44ZM49.5469 58.856C49.5469 56.136 49.4989 54.184 49.4029 53H55.8829C56.0109 54.248 56.0749 55.656 56.0749 57.224V57.704H56.2669C56.8749 56.136 57.9629 54.888 59.5309 53.96C61.1309 53 62.9549 52.52 65.0029 52.52C65.4189 52.52 65.9149 52.568 66.4909 52.664V57.992C66.4269 57.96 66.1069 57.944 65.5309 57.944C63.8989 57.944 62.3789 58.36 60.9709 59.192C59.5629 60.024 58.4429 61.128 57.6109 62.504C56.7789 63.88 56.3629 65.368 56.3629 66.968V77H49.5469V58.856ZM90.735 67.496H74.223C74.511 68.936 75.103 70.008 75.999 70.712C76.927 71.416 78.175 71.768 79.743 71.768C81.119 71.768 82.319 71.544 83.343 71.096C84.367 70.648 85.391 69.88 86.415 68.792L90.063 72.248C89.135 73.816 87.679 75.08 85.695 76.04C83.743 77 81.615 77.48 79.311 77.48C75.535 77.48 72.575 76.392 70.431 74.216C68.287 72.008 67.215 68.968 67.215 65.096C67.215 61.192 68.287 58.12 70.431 55.88C72.575 53.64 75.519 52.52 79.263 52.52C82.847 52.52 85.647 53.64 87.663 55.88C89.711 58.088 90.735 61.144 90.735 65.048V67.496ZM84.015 62.648C84.015 61.24 83.583 60.136 82.719 59.336C81.855 58.504 80.671 58.088 79.167 58.088C77.823 58.088 76.719 58.52 75.855 59.384C74.991 60.216 74.415 61.4 74.127 62.936H84.015V62.648Z" fill="#FFEEE8"/>
<line y1="87.5" x2="55" y2="87.5" stroke="white"/>
<path d="M2.08 102.1C1.58667 102.1 1.18333 101.957 0.87 101.67C0.556667 101.383 0.4 101.013 0.4 100.56C0.4 100.06 0.586667 99.6733 0.96 99.4C1.34 99.1267 1.87667 98.99 2.57 98.99H3.6V98.73C3.6 98.3567 3.5 98.0733 3.3 97.88C3.10667 97.68 2.82333 97.58 2.45 97.58C2.15 97.58 1.87333 97.6433 1.62 97.77C1.37333 97.89 1.16667 98.0667 1 98.3L0.57 97.78C0.796667 97.4933 1.07333 97.2767 1.4 97.13C1.72667 96.9767 2.09 96.9 2.49 96.9C3.11667 96.9 3.6 97.0533 3.94 97.36C4.28 97.6667 4.45 98.1067 4.45 98.68V101.03C4.45 101.29 4.49 101.613 4.57 102H3.83C3.77 101.847 3.72667 101.613 3.7 101.3H3.68C3.49333 101.56 3.26333 101.76 2.99 101.9C2.71667 102.033 2.41333 102.1 2.08 102.1ZM2.21 101.43C2.46333 101.43 2.69667 101.383 2.91 101.29C3.12333 101.19 3.29 101.057 3.41 100.89C3.53667 100.723 3.6 100.54 3.6 100.34V99.6H2.54C2.12 99.6 1.79667 99.6833 1.57 99.85C1.34333 100.017 1.23 100.253 1.23 100.56C1.23 100.827 1.31667 101.04 1.49 101.2C1.67 101.353 1.91 101.43 2.21 101.43ZM6.66672 102.1C5.94672 102.1 5.58672 101.677 5.58672 100.83V94.58H6.43672V100.82C6.43672 101.053 6.47339 101.22 6.54672 101.32C6.62672 101.413 6.76005 101.46 6.94672 101.46C7.09339 101.46 7.26005 101.42 7.44672 101.34L7.57672 101.85C7.32339 102.017 7.02005 102.1 6.66672 102.1ZM12.1516 97V101.84C12.1516 102.64 11.9549 103.247 11.5616 103.66C11.1682 104.073 10.5916 104.28 9.83156 104.28C9.49823 104.28 9.17156 104.24 8.85156 104.16C8.53823 104.08 8.2549 103.967 8.00156 103.82L8.28156 103.2C8.78156 103.44 9.28823 103.56 9.80156 103.56C10.8416 103.56 11.3616 102.943 11.3616 101.71V101.25C11.2282 101.503 11.0249 101.703 10.7516 101.85C10.4782 101.997 10.1682 102.07 9.82156 102.07C9.16156 102.07 8.64156 101.833 8.26156 101.36C7.88156 100.887 7.69156 100.24 7.69156 99.42C7.69156 98.6333 7.87823 98.0167 8.25156 97.57C8.6249 97.1233 9.13823 96.9 9.79156 96.9C10.1382 96.9 10.4416 96.97 10.7016 97.11C10.9682 97.25 11.1782 97.4533 11.3316 97.72H11.3516L11.4516 97H12.1516ZM11.3016 99.17C11.3016 98.6633 11.1816 98.2667 10.9416 97.98C10.7016 97.6933 10.3682 97.55 9.94156 97.55C9.50823 97.55 9.1649 97.72 8.91156 98.06C8.6649 98.3933 8.54156 98.8533 8.54156 99.44C8.54156 100.053 8.6649 100.533 8.91156 100.88C9.15823 101.22 9.50156 101.39 9.94156 101.39C10.3682 101.39 10.7016 101.263 10.9416 101.01C11.1816 100.75 11.3016 100.39 11.3016 99.93V99.17ZM14.8717 102.1C14.2984 102.1 13.8617 101.913 13.5617 101.54C13.2684 101.167 13.1217 100.617 13.1217 99.89V97H13.9717V99.9C13.9717 100.913 14.3317 101.42 15.0517 101.42C15.3317 101.42 15.5851 101.35 15.8117 101.21C16.0384 101.063 16.2151 100.863 16.3417 100.61C16.4684 100.35 16.5317 100.06 16.5317 99.74V97H17.3817V100.94C17.3817 101.273 17.4117 101.627 17.4717 102H16.6917C16.6317 101.707 16.5984 101.41 16.5917 101.11H16.5617C16.4151 101.417 16.1884 101.66 15.8817 101.84C15.5817 102.013 15.2451 102.1 14.8717 102.1ZM18.3793 98.26C18.3793 97.6267 18.366 97.2067 18.3393 97H19.1293C19.156 97.22 19.1693 97.5167 19.1693 97.89H19.1993C19.346 97.5833 19.5693 97.3433 19.8693 97.17C20.176 96.99 20.516 96.9 20.8893 96.9C21.476 96.9 21.916 97.09 22.2093 97.47C22.5026 97.85 22.6493 98.4167 22.6493 99.17V102H21.7993V99.16C21.7993 98.6267 21.7093 98.23 21.5293 97.97C21.3493 97.71 21.076 97.58 20.7093 97.58C20.4293 97.58 20.176 97.6533 19.9493 97.8C19.7226 97.94 19.546 98.14 19.4193 98.4C19.2926 98.6533 19.2293 98.94 19.2293 99.26V102H18.3793V98.26ZM25.0176 102.1C24.6442 102.1 24.3042 102.023 23.9976 101.87C23.6976 101.717 23.4842 101.513 23.3576 101.26L23.9076 100.88C24.0209 101.06 24.1776 101.2 24.3776 101.3C24.5776 101.4 24.7942 101.45 25.0276 101.45C25.3076 101.45 25.5376 101.37 25.7176 101.21C25.9042 101.043 25.9976 100.837 25.9976 100.59C25.9976 100.39 25.9242 100.223 25.7776 100.09C25.6309 99.9567 25.3709 99.82 24.9976 99.68C24.4309 99.4733 24.0309 99.2567 23.7976 99.03C23.5709 98.8033 23.4576 98.5233 23.4576 98.19C23.4576 97.8033 23.6109 97.4933 23.9176 97.26C24.2242 97.02 24.6309 96.9 25.1376 96.9C25.4642 96.9 25.7609 96.97 26.0276 97.11C26.3009 97.25 26.5109 97.4433 26.6576 97.69L26.1376 98.07C25.9042 97.7233 25.5709 97.55 25.1376 97.55C24.8909 97.55 24.6876 97.6067 24.5276 97.72C24.3742 97.8333 24.2976 97.98 24.2976 98.16C24.2976 98.34 24.3776 98.4933 24.5376 98.62C24.6976 98.74 24.9942 98.8833 25.4276 99.05C25.9409 99.2433 26.3042 99.4567 26.5176 99.69C26.7309 99.9167 26.8376 100.207 26.8376 100.56C26.8376 101.027 26.6709 101.4 26.3376 101.68C26.0042 101.96 25.5642 102.1 25.0176 102.1ZM31.5494 102.1C30.9027 102.1 30.3894 101.86 30.0094 101.38C29.636 100.9 29.4494 100.243 29.4494 99.41C29.4494 98.9033 29.536 98.4633 29.7094 98.09C29.8827 97.71 30.1294 97.4167 30.4494 97.21C30.7694 97.0033 31.1427 96.9 31.5694 96.9C32.1827 96.9 32.676 97.1567 33.0494 97.67H33.0694V94.58H33.9094V100.74C33.9094 101.36 33.9194 101.78 33.9394 102H33.1594C33.146 101.84 33.1394 101.577 33.1394 101.21H33.1194C32.966 101.477 32.746 101.693 32.4594 101.86C32.1727 102.02 31.8694 102.1 31.5494 102.1ZM31.6694 101.42C32.096 101.42 32.4327 101.293 32.6794 101.04C32.9327 100.78 33.0594 100.433 33.0594 100V99.09C33.0594 98.6233 32.9327 98.25 32.6794 97.97C32.426 97.69 32.0894 97.55 31.6694 97.55C31.2427 97.55 30.906 97.7167 30.6594 98.05C30.4194 98.3767 30.2994 98.8367 30.2994 99.43C30.2994 100.05 30.4194 100.537 30.6594 100.89C30.906 101.243 31.2427 101.42 31.6694 101.42ZM35.4993 96.13C35.3126 96.13 35.166 96.08 35.0593 95.98C34.9526 95.88 34.8993 95.7433 34.8993 95.57C34.8993 95.3967 34.9526 95.26 35.0593 95.16C35.166 95.0533 35.3126 95 35.4993 95C35.686 95 35.8326 95.0533 35.9393 95.16C36.0526 95.26 36.1093 95.3967 36.1093 95.57C36.1093 95.7433 36.0526 95.88 35.9393 95.98C35.8326 96.08 35.686 96.13 35.4993 96.13ZM35.0793 97H35.9293V102H35.0793V97ZM37.1505 98.22C37.1505 97.6533 37.1405 97.2467 37.1205 97H37.9105C37.9371 97.2667 37.9505 97.56 37.9505 97.88V97.98H37.9805C38.1071 97.6333 38.3105 97.3667 38.5905 97.18C38.8705 96.9933 39.2005 96.9 39.5805 96.9C39.6871 96.9 39.7838 96.91 39.8705 96.93V97.63C39.7838 97.61 39.6671 97.6 39.5205 97.6C39.2405 97.6 38.9838 97.6867 38.7505 97.86C38.5171 98.0267 38.3338 98.2567 38.2005 98.55C38.0671 98.8433 38.0005 99.1633 38.0005 99.51V102H37.1505V98.22ZM44.5466 99.83H40.9466C40.9932 100.337 41.1432 100.723 41.3966 100.99C41.6499 101.25 41.9999 101.38 42.4466 101.38C43.0466 101.38 43.5232 101.143 43.8766 100.67L44.3566 101.13C44.1632 101.437 43.8932 101.677 43.5466 101.85C43.2066 102.017 42.8299 102.1 42.4166 102.1C41.6766 102.1 41.1032 101.873 40.6966 101.42C40.2899 100.967 40.0866 100.33 40.0866 99.51C40.0866 98.6967 40.2899 98.06 40.6966 97.6C41.1099 97.1333 41.6766 96.9 42.3966 96.9C43.0699 96.9 43.5966 97.13 43.9766 97.59C44.3566 98.0433 44.5466 98.68 44.5466 99.5V99.83ZM43.7666 99.13C43.7666 98.65 43.6399 98.2733 43.3866 98C43.1399 97.7267 42.7966 97.59 42.3566 97.59C41.9432 97.59 41.6132 97.73 41.3666 98.01C41.1266 98.29 40.9866 98.6867 40.9466 99.2H43.7666V99.13ZM45.8723 96.13C45.6857 96.13 45.539 96.08 45.4323 95.98C45.3257 95.88 45.2723 95.7433 45.2723 95.57C45.2723 95.3967 45.3257 95.26 45.4323 95.16C45.539 95.0533 45.6857 95 45.8723 95C46.059 95 46.2057 95.0533 46.3123 95.16C46.4257 95.26 46.4823 95.3967 46.4823 95.57C46.4823 95.7433 46.4257 95.88 46.3123 95.98C46.2057 96.08 46.059 96.13 45.8723 96.13ZM45.4523 97H46.3023V102H45.4523V97ZM49.2735 102.1C48.8335 102.1 48.4868 101.96 48.2335 101.68C47.9802 101.393 47.8535 101 47.8535 100.5V97.66H46.9535V97H47.8535V95.67L48.6635 95.42H48.7035V97H50.1235V97.66H48.7035V100.42C48.7035 100.76 48.7668 101.013 48.8935 101.18C49.0202 101.34 49.2168 101.42 49.4835 101.42C49.7702 101.42 50.0035 101.383 50.1835 101.31L50.2435 101.94C50.0235 102.047 49.7002 102.1 49.2735 102.1ZM52.8503 102.1C52.357 102.1 51.927 101.997 51.5603 101.79C51.2003 101.577 50.9203 101.273 50.7203 100.88C50.527 100.487 50.4303 100.027 50.4303 99.5C50.4303 98.9733 50.527 98.5133 50.7203 98.12C50.9203 97.7267 51.2003 97.4267 51.5603 97.22C51.927 97.0067 52.357 96.9 52.8503 96.9C53.597 96.9 54.187 97.1333 54.6203 97.6C55.0603 98.0667 55.2803 98.7 55.2803 99.5C55.2803 100.3 55.0603 100.933 54.6203 101.4C54.187 101.867 53.597 102.1 52.8503 102.1ZM52.8503 101.45C53.3436 101.45 53.7303 101.277 54.0103 100.93C54.2903 100.583 54.4303 100.107 54.4303 99.5C54.4303 98.8933 54.2903 98.4167 54.0103 98.07C53.7303 97.7233 53.3436 97.55 52.8503 97.55C52.3636 97.55 51.9803 97.7233 51.7003 98.07C51.4203 98.4167 51.2803 98.8933 51.2803 99.5C51.2803 100.107 51.4203 100.583 51.7003 100.93C51.9803 101.277 52.3636 101.45 52.8503 101.45ZM57.3867 102.1C57.0134 102.1 56.6734 102.023 56.3667 101.87C56.0667 101.717 55.8534 101.513 55.7267 101.26L56.2767 100.88C56.3901 101.06 56.5467 101.2 56.7467 101.3C56.9467 101.4 57.1634 101.45 57.3967 101.45C57.6767 101.45 57.9067 101.37 58.0867 101.21C58.2734 101.043 58.3667 100.837 58.3667 100.59C58.3667 100.39 58.2934 100.223 58.1467 100.09C58.0001 99.9567 57.7401 99.82 57.3667 99.68C56.8001 99.4733 56.4001 99.2567 56.1667 99.03C55.9401 98.8033 55.8267 98.5233 55.8267 98.19C55.8267 97.8033 55.9801 97.4933 56.2867 97.26C56.5934 97.02 57.0001 96.9 57.5067 96.9C57.8334 96.9 58.1301 96.97 58.3967 97.11C58.6701 97.25 58.8801 97.4433 59.0267 97.69L58.5067 98.07C58.2734 97.7233 57.9401 97.55 57.5067 97.55C57.2601 97.55 57.0567 97.6067 56.8967 97.72C56.7434 97.8333 56.6667 97.98 56.6667 98.16C56.6667 98.34 56.7467 98.4933 56.9067 98.62C57.0667 98.74 57.3634 98.8833 57.7967 99.05C58.3101 99.2433 58.6734 99.4567 58.8867 99.69C59.1001 99.9167 59.2067 100.207 59.2067 100.56C59.2067 101.027 59.0401 101.4 58.7067 101.68C58.3734 101.96 57.9334 102.1 57.3867 102.1ZM62.1485 98.22C62.1485 97.6533 62.1385 97.2467 62.1185 97H62.9085C62.9352 97.2667 62.9485 97.56 62.9485 97.88V97.98H62.9785C63.1052 97.6333 63.3085 97.3667 63.5885 97.18C63.8685 96.9933 64.1985 96.9 64.5785 96.9C64.6852 96.9 64.7818 96.91 64.8685 96.93V97.63C64.7818 97.61 64.6652 97.6 64.5185 97.6C64.2385 97.6 63.9818 97.6867 63.7485 97.86C63.5152 98.0267 63.3318 98.2567 63.1985 98.55C63.0652 98.8433 62.9985 99.1633 62.9985 99.51V102H62.1485V98.22ZM69.5446 99.83H65.9446C65.9913 100.337 66.1413 100.723 66.3946 100.99C66.6479 101.25 66.9979 101.38 67.4446 101.38C68.0446 101.38 68.5213 101.143 68.8746 100.67L69.3546 101.13C69.1613 101.437 68.8913 101.677 68.5446 101.85C68.2046 102.017 67.8279 102.1 67.4146 102.1C66.6746 102.1 66.1013 101.873 65.6946 101.42C65.2879 100.967 65.0846 100.33 65.0846 99.51C65.0846 98.6967 65.2879 98.06 65.6946 97.6C66.1079 97.1333 66.6746 96.9 67.3946 96.9C68.0679 96.9 68.5946 97.13 68.9746 97.59C69.3546 98.0433 69.5446 98.68 69.5446 99.5V99.83ZM68.7646 99.13C68.7646 98.65 68.6379 98.2733 68.3846 98C68.1379 97.7267 67.7946 97.59 67.3546 97.59C66.9413 97.59 66.6113 97.73 66.3646 98.01C66.1246 98.29 65.9846 98.6867 65.9446 99.2H68.7646V99.13ZM71.8457 102.1C71.4724 102.1 71.1324 102.023 70.8257 101.87C70.5257 101.717 70.3124 101.513 70.1857 101.26L70.7357 100.88C70.849 101.06 71.0057 101.2 71.2057 101.3C71.4057 101.4 71.6224 101.45 71.8557 101.45C72.1357 101.45 72.3657 101.37 72.5457 101.21C72.7324 101.043 72.8257 100.837 72.8257 100.59C72.8257 100.39 72.7524 100.223 72.6057 100.09C72.459 99.9567 72.199 99.82 71.8257 99.68C71.259 99.4733 70.859 99.2567 70.6257 99.03C70.399 98.8033 70.2857 98.5233 70.2857 98.19C70.2857 97.8033 70.439 97.4933 70.7457 97.26C71.0524 97.02 71.459 96.9 71.9657 96.9C72.2924 96.9 72.589 96.97 72.8557 97.11C73.129 97.25 73.339 97.4433 73.4857 97.69L72.9657 98.07C72.7324 97.7233 72.399 97.55 71.9657 97.55C71.719 97.55 71.5157 97.6067 71.3557 97.72C71.2024 97.8333 71.1257 97.98 71.1257 98.16C71.1257 98.34 71.2057 98.4933 71.3657 98.62C71.5257 98.74 71.8224 98.8833 72.2557 99.05C72.769 99.2433 73.1324 99.4567 73.3457 99.69C73.559 99.9167 73.6657 100.207 73.6657 100.56C73.6657 101.027 73.499 101.4 73.1657 101.68C72.8324 101.96 72.3924 102.1 71.8457 102.1ZM78.7712 99.83H75.1712C75.2178 100.337 75.3678 100.723 75.6212 100.99C75.8745 101.25 76.2245 101.38 76.6712 101.38C77.2712 101.38 77.7478 101.143 78.1012 100.67L78.5812 101.13C78.3878 101.437 78.1178 101.677 77.7712 101.85C77.4312 102.017 77.0545 102.1 76.6412 102.1C75.9012 102.1 75.3278 101.873 74.9212 101.42C74.5145 100.967 74.3112 100.33 74.3112 99.51C74.3112 98.6967 74.5145 98.06 74.9212 97.6C75.3345 97.1333 75.9012 96.9 76.6212 96.9C77.2945 96.9 77.8212 97.13 78.2012 97.59C78.5812 98.0433 78.7712 98.68 78.7712 99.5V99.83ZM77.9912 99.13C77.9912 98.65 77.8645 98.2733 77.6112 98C77.3645 97.7267 77.0212 97.59 76.5812 97.59C76.1678 97.59 75.8378 97.73 75.5912 98.01C75.3512 98.29 75.2112 98.6867 75.1712 99.2H77.9912V99.13ZM79.547 98.22C79.547 97.6533 79.537 97.2467 79.517 97H80.307C80.3336 97.2667 80.347 97.56 80.347 97.88V97.98H80.377C80.5036 97.6333 80.707 97.3667 80.987 97.18C81.267 96.9933 81.597 96.9 81.977 96.9C82.0836 96.9 82.1803 96.91 82.267 96.93V97.63C82.1803 97.61 82.0636 97.6 81.917 97.6C81.637 97.6 81.3803 97.6867 81.147 97.86C80.9136 98.0267 80.7303 98.2567 80.597 98.55C80.4636 98.8433 80.397 99.1633 80.397 99.51V102H79.547V98.22ZM86.803 97L84.903 102H84.133L82.233 97H83.113L84.523 101L85.923 97H86.803ZM88.4355 102.1C87.9421 102.1 87.5388 101.957 87.2255 101.67C86.9121 101.383 86.7555 101.013 86.7555 100.56C86.7555 100.06 86.9421 99.6733 87.3155 99.4C87.6955 99.1267 88.2321 98.99 88.9255 98.99H89.9555V98.73C89.9555 98.3567 89.8555 98.0733 89.6555 97.88C89.4621 97.68 89.1788 97.58 88.8055 97.58C88.5055 97.58 88.2288 97.6433 87.9755 97.77C87.7288 97.89 87.5221 98.0667 87.3555 98.3L86.9255 97.78C87.1521 97.4933 87.4288 97.2767 87.7555 97.13C88.0821 96.9767 88.4455 96.9 88.8455 96.9C89.4721 96.9 89.9555 97.0533 90.2955 97.36C90.6355 97.6667 90.8055 98.1067 90.8055 98.68V101.03C90.8055 101.29 90.8455 101.613 90.9255 102H90.1855C90.1255 101.847 90.0821 101.613 90.0555 101.3H90.0355C89.8488 101.56 89.6188 101.76 89.3455 101.9C89.0721 102.033 88.7688 102.1 88.4355 102.1ZM88.5655 101.43C88.8188 101.43 89.0521 101.383 89.2655 101.29C89.4788 101.19 89.6455 101.057 89.7655 100.89C89.8921 100.723 89.9555 100.54 89.9555 100.34V99.6H88.8955C88.4755 99.6 88.1521 99.6833 87.9255 99.85C87.6988 100.017 87.5855 100.253 87.5855 100.56C87.5855 100.827 87.6721 101.04 87.8455 101.2C88.0255 101.353 88.2655 101.43 88.5655 101.43ZM93.6822 102.1C93.0355 102.1 92.5222 101.86 92.1422 101.38C91.7689 100.9 91.5822 100.243 91.5822 99.41C91.5822 98.9033 91.6689 98.4633 91.8422 98.09C92.0155 97.71 92.2622 97.4167 92.5822 97.21C92.9022 97.0033 93.2755 96.9 93.7022 96.9C94.3155 96.9 94.8089 97.1567 95.1822 97.67H95.2022V94.58H96.0422V100.74C96.0422 101.36 96.0522 101.78 96.0722 102H95.2922C95.2789 101.84 95.2722 101.577 95.2722 101.21H95.2522C95.0989 101.477 94.8789 101.693 94.5922 101.86C94.3055 102.02 94.0022 102.1 93.6822 102.1ZM93.8022 101.42C94.2289 101.42 94.5655 101.293 94.8122 101.04C95.0655 100.78 95.1922 100.433 95.1922 100V99.09C95.1922 98.6233 95.0655 98.25 94.8122 97.97C94.5589 97.69 94.2222 97.55 93.8022 97.55C93.3755 97.55 93.0389 97.7167 92.7922 98.05C92.5522 98.3767 92.4322 98.8367 92.4322 99.43C92.4322 100.05 92.5522 100.537 92.7922 100.89C93.0389 101.243 93.3755 101.42 93.8022 101.42ZM99.1921 102.1C98.6988 102.1 98.2688 101.997 97.9021 101.79C97.5421 101.577 97.2621 101.273 97.0621 100.88C96.8688 100.487 96.7721 100.027 96.7721 99.5C96.7721 98.9733 96.8688 98.5133 97.0621 98.12C97.2621 97.7267 97.5421 97.4267 97.9021 97.22C98.2688 97.0067 98.6988 96.9 99.1921 96.9C99.9388 96.9 100.529 97.1333 100.962 97.6C101.402 98.0667 101.622 98.7 101.622 99.5C101.622 100.3 101.402 100.933 100.962 101.4C100.529 101.867 99.9388 102.1 99.1921 102.1ZM99.1921 101.45C99.6854 101.45 100.072 101.277 100.352 100.93C100.632 100.583 100.772 100.107 100.772 99.5C100.772 98.8933 100.632 98.4167 100.352 98.07C100.072 97.7233 99.6854 97.55 99.1921 97.55C98.7054 97.55 98.3221 97.7233 98.0421 98.07C97.7621 98.4167 97.6221 98.8933 97.6221 99.5C97.6221 100.107 97.7621 100.583 98.0421 100.93C98.3221 101.277 98.7054 101.45 99.1921 101.45ZM103.729 102.1C103.355 102.1 103.015 102.023 102.709 101.87C102.409 101.717 102.195 101.513 102.069 101.26L102.619 100.88C102.732 101.06 102.889 101.2 103.089 101.3C103.289 101.4 103.505 101.45 103.739 101.45C104.019 101.45 104.249 101.37 104.429 101.21C104.615 101.043 104.709 100.837 104.709 100.59C104.709 100.39 104.635 100.223 104.489 100.09C104.342 99.9567 104.082 99.82 103.709 99.68C103.142 99.4733 102.742 99.2567 102.509 99.03C102.282 98.8033 102.169 98.5233 102.169 98.19C102.169 97.8033 102.322 97.4933 102.629 97.26C102.935 97.02 103.342 96.9 103.849 96.9C104.175 96.9 104.472 96.97 104.739 97.11C105.012 97.25 105.222 97.4433 105.369 97.69L104.849 98.07C104.615 97.7233 104.282 97.55 103.849 97.55C103.602 97.55 103.399 97.6067 103.239 97.72C103.085 97.8333 103.009 97.98 103.009 98.16C103.009 98.34 103.089 98.4933 103.249 98.62C103.409 98.74 103.705 98.8833 104.139 99.05C104.652 99.2433 105.015 99.4567 105.229 99.69C105.442 99.9167 105.549 100.207 105.549 100.56C105.549 101.027 105.382 101.4 105.049 101.68C104.715 101.96 104.275 102.1 103.729 102.1ZM5.75 111.38V115H5.13L4.98 114.56C4.76 114.733 4.5 114.867 4.2 114.96C3.90667 115.053 3.59333 115.1 3.26 115.1C2.66 115.1 2.14 114.957 1.7 114.67C1.26 114.377 0.923333 113.96 0.69 113.42C0.456667 112.88 0.34 112.24 0.34 111.5C0.34 110.773 0.463333 110.14 0.71 109.6C0.963333 109.06 1.31667 108.643 1.77 108.35C2.23 108.05 2.76667 107.9 3.38 107.9C3.9 107.9 4.36 107.997 4.76 108.19C5.16 108.383 5.45333 108.65 5.64 108.99L5.13 109.5C4.95667 109.227 4.72 109.02 4.42 108.88C4.12667 108.733 3.78333 108.66 3.39 108.66C2.72333 108.66 2.20333 108.91 1.83 109.41C1.45667 109.91 1.27 110.607 1.27 111.5C1.27 112.407 1.45 113.113 1.81 113.62C2.17667 114.127 2.68667 114.38 3.34 114.38C3.64667 114.38 3.92667 114.337 4.18 114.25C4.44 114.163 4.66 114.037 4.84 113.87V112.06H3.17V111.38H5.75ZM8.18742 115.1C7.69409 115.1 7.29076 114.957 6.97742 114.67C6.66409 114.383 6.50742 114.013 6.50742 113.56C6.50742 113.06 6.69409 112.673 7.06742 112.4C7.44742 112.127 7.98409 111.99 8.67742 111.99H9.70742V111.73C9.70742 111.357 9.60742 111.073 9.40742 110.88C9.21409 110.68 8.93076 110.58 8.55742 110.58C8.25742 110.58 7.98076 110.643 7.72742 110.77C7.48076 110.89 7.27409 111.067 7.10742 111.3L6.67742 110.78C6.90409 110.493 7.18076 110.277 7.50742 110.13C7.83409 109.977 8.19742 109.9 8.59742 109.9C9.22409 109.9 9.70742 110.053 10.0474 110.36C10.3874 110.667 10.5574 111.107 10.5574 111.68V114.03C10.5574 114.29 10.5974 114.613 10.6774 115H9.93742C9.87742 114.847 9.83409 114.613 9.80742 114.3H9.78742C9.60076 114.56 9.37076 114.76 9.09742 114.9C8.82409 115.033 8.52076 115.1 8.18742 115.1ZM8.31742 114.43C8.57076 114.43 8.80409 114.383 9.01742 114.29C9.23076 114.19 9.39742 114.057 9.51742 113.89C9.64409 113.723 9.70742 113.54 9.70742 113.34V112.6H8.64742C8.22742 112.6 7.90409 112.683 7.67742 112.85C7.45076 113.017 7.33742 113.253 7.33742 113.56C7.33742 113.827 7.42409 114.04 7.59742 114.2C7.77742 114.353 8.01742 114.43 8.31742 114.43ZM13.9741 115.1C13.6608 115.1 13.3575 115.02 13.0641 114.86C12.7708 114.693 12.5508 114.477 12.4041 114.21H12.3841C12.3908 114.423 12.3841 114.687 12.3641 115H11.5841C11.6041 114.78 11.6141 114.36 11.6141 113.74V107.58H12.4641V110.67H12.4841C12.8175 110.157 13.3208 109.9 13.9941 109.9C14.6341 109.9 15.1408 110.127 15.5141 110.58C15.8875 111.027 16.0741 111.637 16.0741 112.41C16.0741 113.243 15.8841 113.9 15.5041 114.38C15.1308 114.86 14.6208 115.1 13.9741 115.1ZM13.8541 114.42C14.2808 114.42 14.6141 114.243 14.8541 113.89C15.1008 113.537 15.2241 113.05 15.2241 112.43C15.2241 111.837 15.1008 111.377 14.8541 111.05C14.6141 110.717 14.2808 110.55 13.8541 110.55C13.4408 110.55 13.1041 110.693 12.8441 110.98C12.5908 111.26 12.4641 111.63 12.4641 112.09V113C12.4641 113.433 12.5875 113.78 12.8341 114.04C13.0875 114.293 13.4275 114.42 13.8541 114.42ZM16.8341 111.22C16.8341 110.653 16.8241 110.247 16.8041 110H17.5941C17.6207 110.267 17.6341 110.56 17.6341 110.88V110.98H17.6641C17.7907 110.633 17.9941 110.367 18.2741 110.18C18.5541 109.993 18.8841 109.9 19.2641 109.9C19.3707 109.9 19.4674 109.91 19.5541 109.93V110.63C19.4674 110.61 19.3507 110.6 19.2041 110.6C18.9241 110.6 18.6674 110.687 18.4341 110.86C18.2007 111.027 18.0174 111.257 17.8841 111.55C17.7507 111.843 17.6841 112.163 17.6841 112.51V115H16.8341V111.22ZM20.6302 109.13C20.4435 109.13 20.2968 109.08 20.1902 108.98C20.0835 108.88 20.0302 108.743 20.0302 108.57C20.0302 108.397 20.0835 108.26 20.1902 108.16C20.2968 108.053 20.4435 108 20.6302 108C20.8168 108 20.9635 108.053 21.0702 108.16C21.1835 108.26 21.2402 108.397 21.2402 108.57C21.2402 108.743 21.1835 108.88 21.0702 108.98C20.9635 109.08 20.8168 109.13 20.6302 109.13ZM20.2102 110H21.0602V115H20.2102V110ZM26.4313 112.83H22.8313C22.878 113.337 23.028 113.723 23.2813 113.99C23.5347 114.25 23.8847 114.38 24.3313 114.38C24.9313 114.38 25.408 114.143 25.7613 113.67L26.2413 114.13C26.048 114.437 25.778 114.677 25.4313 114.85C25.0913 115.017 24.7147 115.1 24.3013 115.1C23.5613 115.1 22.988 114.873 22.5813 114.42C22.1747 113.967 21.9713 113.33 21.9713 112.51C21.9713 111.697 22.1747 111.06 22.5813 110.6C22.9947 110.133 23.5613 109.9 24.2813 109.9C24.9547 109.9 25.4813 110.13 25.8613 110.59C26.2413 111.043 26.4313 111.68 26.4313 112.5V112.83ZM25.6513 112.13C25.6513 111.65 25.5247 111.273 25.2713 111C25.0247 110.727 24.6813 110.59 24.2413 110.59C23.828 110.59 23.498 110.73 23.2513 111.01C23.0113 111.29 22.8713 111.687 22.8313 112.2H25.6513V112.13ZM28.3171 115.1C27.5971 115.1 27.2371 114.677 27.2371 113.83V107.58H28.0871V113.82C28.0871 114.053 28.1238 114.22 28.1971 114.32C28.2771 114.413 28.4104 114.46 28.5971 114.46C28.7438 114.46 28.9104 114.42 29.0971 114.34L29.2271 114.85C28.9738 115.017 28.6704 115.1 28.3171 115.1ZM33.9889 115.1C33.5356 115.1 33.1089 115.003 32.7089 114.81C32.3156 114.617 31.9989 114.35 31.7589 114.01L32.3189 113.45C32.5256 113.717 32.7856 113.933 33.0989 114.1C33.4122 114.26 33.7222 114.34 34.0289 114.34C34.4222 114.34 34.7389 114.24 34.9789 114.04C35.2256 113.84 35.3489 113.577 35.3489 113.25C35.3489 113.037 35.3056 112.85 35.2189 112.69C35.1389 112.53 34.9956 112.377 34.7889 112.23C34.5889 112.077 34.3022 111.91 33.9289 111.73C33.2156 111.383 32.7122 111.057 32.4189 110.75C32.1322 110.437 31.9889 110.073 31.9889 109.66C31.9889 109.127 32.1822 108.7 32.5689 108.38C32.9556 108.06 33.4689 107.9 34.1089 107.9C34.5556 107.9 34.9622 107.997 35.3289 108.19C35.7022 108.383 35.9722 108.643 36.1389 108.97L35.5389 109.41C35.3789 109.177 35.1722 108.993 34.9189 108.86C34.6656 108.727 34.3989 108.66 34.1189 108.66C33.7456 108.66 33.4489 108.75 33.2289 108.93C33.0156 109.103 32.9089 109.34 32.9089 109.64C32.9089 109.82 32.9489 109.973 33.0289 110.1C33.1089 110.227 33.2556 110.36 33.4689 110.5C33.6889 110.633 34.0322 110.817 34.4989 111.05C35.1322 111.363 35.5856 111.687 35.8589 112.02C36.1322 112.347 36.2689 112.733 36.2689 113.18C36.2689 113.56 36.1722 113.897 35.9789 114.19C35.7922 114.477 35.5256 114.7 35.1789 114.86C34.8389 115.02 34.4422 115.1 33.9889 115.1ZM37.6419 109.13C37.4552 109.13 37.3085 109.08 37.2019 108.98C37.0952 108.88 37.0419 108.743 37.0419 108.57C37.0419 108.397 37.0952 108.26 37.2019 108.16C37.3085 108.053 37.4552 108 37.6419 108C37.8285 108 37.9752 108.053 38.0819 108.16C38.1952 108.26 38.2519 108.397 38.2519 108.57C38.2519 108.743 38.1952 108.88 38.0819 108.98C37.9752 109.08 37.8285 109.13 37.6419 109.13ZM37.2219 110H38.0719V115H37.2219V110ZM40.403 115.1C39.683 115.1 39.323 114.677 39.323 113.83V107.58H40.173V113.82C40.173 114.053 40.2097 114.22 40.283 114.32C40.363 114.413 40.4964 114.46 40.683 114.46C40.8297 114.46 40.9964 114.42 41.183 114.34L41.313 114.85C41.0597 115.017 40.7564 115.1 40.403 115.1ZM45.6605 110L43.7605 115H42.9905L41.0905 110H41.9705L43.3805 114L44.7805 110H45.6605ZM47.2929 115.1C46.7996 115.1 46.3962 114.957 46.0829 114.67C45.7696 114.383 45.6129 114.013 45.6129 113.56C45.6129 113.06 45.7996 112.673 46.1729 112.4C46.5529 112.127 47.0896 111.99 47.7829 111.99H48.8129V111.73C48.8129 111.357 48.7129 111.073 48.5129 110.88C48.3196 110.68 48.0362 110.58 47.6629 110.58C47.3629 110.58 47.0862 110.643 46.8329 110.77C46.5862 110.89 46.3796 111.067 46.2129 111.3L45.7829 110.78C46.0096 110.493 46.2862 110.277 46.6129 110.13C46.9396 109.977 47.3029 109.9 47.7029 109.9C48.3296 109.9 48.8129 110.053 49.1529 110.36C49.4929 110.667 49.6629 111.107 49.6629 111.68V114.03C49.6629 114.29 49.7029 114.613 49.7829 115H49.0429C48.9829 114.847 48.9396 114.613 48.9129 114.3H48.8929C48.7062 114.56 48.4762 114.76 48.2029 114.9C47.9296 115.033 47.6262 115.1 47.2929 115.1ZM47.4229 114.43C47.6762 114.43 47.9096 114.383 48.1229 114.29C48.3362 114.19 48.5029 114.057 48.6229 113.89C48.7496 113.723 48.8129 113.54 48.8129 113.34V112.6H47.7529C47.3329 112.6 47.0096 112.683 46.7829 112.85C46.5562 113.017 46.4429 113.253 46.4429 113.56C46.4429 113.827 46.5296 114.04 46.7029 114.2C46.8829 114.353 47.1229 114.43 47.4229 114.43ZM53.0813 108H54.0013V114.24H57.3813V115H53.0813V108ZM58.7298 109.13C58.5431 109.13 58.3964 109.08 58.2898 108.98C58.1831 108.88 58.1298 108.743 58.1298 108.57C58.1298 108.397 58.1831 108.26 58.2898 108.16C58.3964 108.053 58.5431 108 58.7298 108C58.9164 108 59.0631 108.053 59.1698 108.16C59.2831 108.26 59.3398 108.397 59.3398 108.57C59.3398 108.743 59.2831 108.88 59.1698 108.98C59.0631 109.08 58.9164 109.13 58.7298 109.13ZM58.3098 110H59.1598V115H58.3098V110ZM60.3209 111.26C60.3209 110.753 60.3043 110.333 60.2709 110H61.0309C61.0576 110.267 61.0709 110.563 61.0709 110.89H61.1009C61.2343 110.583 61.4443 110.343 61.7309 110.17C62.0176 109.99 62.3376 109.9 62.6909 109.9C63.0443 109.9 63.3476 109.99 63.6009 110.17C63.8543 110.35 64.0243 110.6 64.1109 110.92C64.2509 110.607 64.4643 110.36 64.7509 110.18C65.0376 109.993 65.3609 109.9 65.7209 109.9C66.2676 109.9 66.6943 110.077 67.0009 110.43C67.3143 110.783 67.4709 111.277 67.4709 111.91V115H66.6309V111.98C66.6309 111.527 66.5343 111.18 66.3409 110.94C66.1543 110.7 65.8809 110.58 65.5209 110.58C65.1676 110.58 64.8776 110.713 64.6509 110.98C64.4243 111.24 64.3109 111.577 64.3109 111.99V115H63.4709V112.02C63.4709 111.533 63.3843 111.173 63.2109 110.94C63.0376 110.7 62.7743 110.58 62.4209 110.58C62.2009 110.58 61.9943 110.647 61.8009 110.78C61.6076 110.913 61.4509 111.09 61.3309 111.31C61.2176 111.53 61.1609 111.767 61.1609 112.02V115H60.3209V111.26ZM69.9296 115.1C69.4363 115.1 69.0329 114.957 68.7196 114.67C68.4063 114.383 68.2496 114.013 68.2496 113.56C68.2496 113.06 68.4363 112.673 68.8096 112.4C69.1896 112.127 69.7263 111.99 70.4196 111.99H71.4496V111.73C71.4496 111.357 71.3496 111.073 71.1496 110.88C70.9563 110.68 70.6729 110.58 70.2996 110.58C69.9996 110.58 69.7229 110.643 69.4696 110.77C69.2229 110.89 69.0163 111.067 68.8496 111.3L68.4196 110.78C68.6463 110.493 68.9229 110.277 69.2496 110.13C69.5763 109.977 69.9396 109.9 70.3396 109.9C70.9663 109.9 71.4496 110.053 71.7896 110.36C72.1296 110.667 72.2996 111.107 72.2996 111.68V114.03C72.2996 114.29 72.3396 114.613 72.4196 115H71.6796C71.6196 114.847 71.5763 114.613 71.5496 114.3H71.5296C71.3429 114.56 71.1129 114.76 70.8396 114.9C70.5663 115.033 70.2629 115.1 69.9296 115.1ZM70.0596 114.43C70.3129 114.43 70.5463 114.383 70.7596 114.29C70.9729 114.19 71.1396 114.057 71.2596 113.89C71.3863 113.723 71.4496 113.54 71.4496 113.34V112.6H70.3896C69.9696 112.6 69.6463 112.683 69.4196 112.85C69.1929 113.017 69.0796 113.253 69.0796 113.56C69.0796 113.827 69.1663 114.04 69.3396 114.2C69.5196 114.353 69.7596 114.43 70.0596 114.43Z" fill="white"/>
<ellipse cx="89" cy="3.63636" rx="3" ry="3.63636" fill="#FFC4A4"/>
<ellipse cx="89.6667" cy="3.63636" rx="3" ry="3.63636" fill="#D83306"/>
<ellipse cx="89.3333" cy="3.63636" rx="3" ry="3.63636" fill="#AC2500"/>
</svg>
