<svg width="124" height="42" viewBox="0 0 124 42" fill="none" xmlns="http://www.w3.org/2000/svg">
<circle cx="120" cy="13" r="3" fill="#FFC4A4"/>
<circle cx="120.667" cy="13" r="3" fill="#D83306"/>
<circle cx="120.333" cy="13" r="3" fill="#AC2500"/>
<path d="M2.048 11.6H9.792C12.48 11.6 14.5173 12.2187 15.904 13.456C17.312 14.672 18.016 16.4747 18.016 18.864C18.016 21.3813 17.3013 23.2907 15.872 24.592C14.464 25.8933 12.384 26.544 9.632 26.544H7.2V34H2.048V11.6ZM9.984 22.48C10.9653 22.48 11.712 22.1813 12.224 21.584C12.736 20.9867 12.992 20.1227 12.992 18.992C12.992 17.904 12.7147 17.0827 12.16 16.528C11.6267 15.9733 10.8267 15.696 9.76 15.696H7.2V22.48H9.984ZM34.9025 27.664H23.8945C24.0865 28.624 24.4812 29.3387 25.0785 29.808C25.6972 30.2773 26.5292 30.512 27.5745 30.512C28.4918 30.512 29.2918 30.3627 29.9745 30.064C30.6572 29.7653 31.3398 29.2533 32.0225 28.528L34.4545 30.832C33.8358 31.8773 32.8652 32.72 31.5425 33.36C30.2412 34 28.8225 34.32 27.2865 34.32C24.7692 34.32 22.7958 33.5947 21.3665 32.144C19.9372 30.672 19.2225 28.6453 19.2225 26.064C19.2225 23.4613 19.9372 21.4133 21.3665 19.92C22.7958 18.4267 24.7585 17.68 27.2545 17.68C29.6438 17.68 31.5105 18.4267 32.8545 19.92C34.2198 21.392 34.9025 23.4293 34.9025 26.032V27.664ZM30.4225 24.432C30.4225 23.4933 30.1345 22.7573 29.5585 22.224C28.9825 21.6693 28.1932 21.392 27.1905 21.392C26.2945 21.392 25.5585 21.68 24.9825 22.256C24.4065 22.8107 24.0225 23.6 23.8305 24.624H30.4225V24.432ZM43.8243 34.32C42.0963 34.32 40.7523 33.872 39.7923 32.976C38.8536 32.08 38.3843 30.8213 38.3843 29.2V21.36H35.4723V18H38.3843V13.936L42.8003 12.656H42.9283V18H47.6003V21.36H42.9283V28.496C42.9283 29.3493 43.1416 29.9787 43.5683 30.384C43.9949 30.768 44.6563 30.96 45.5523 30.96C46.4056 30.96 47.1949 30.8213 47.9203 30.544L48.1123 33.616C47.0456 34.0853 45.6163 34.32 43.8243 34.32ZM63.6342 34.32C61.0956 34.32 59.1009 33.584 57.6502 32.112C56.2209 30.6187 55.5062 28.5813 55.5062 26C55.5062 23.4187 56.2209 21.392 57.6502 19.92C59.1009 18.4267 61.0956 17.68 63.6342 17.68C65.1702 17.68 66.5036 17.968 67.6342 18.544C68.7863 19.0987 69.6503 19.8987 70.2262 20.944L67.5062 23.312C67.1009 22.6293 66.5782 22.096 65.9382 21.712C65.2982 21.328 64.6049 21.136 63.8582 21.136C62.6636 21.136 61.7249 21.5733 61.0422 22.448C60.3596 23.3013 60.0182 24.4853 60.0182 26C60.0182 27.5147 60.3596 28.7093 61.0422 29.584C61.7249 30.4373 62.6636 30.864 63.8582 30.864C64.6049 30.864 65.2982 30.672 65.9382 30.288C66.5782 29.904 67.1009 29.3707 67.5062 28.688L70.2262 31.056C69.6503 32.1013 68.7863 32.912 67.6342 33.488C66.5036 34.0427 65.1702 34.32 63.6342 34.32ZM76.1798 34.32C75.1344 34.32 74.1958 34.096 73.3638 33.648C72.5318 33.2 71.8811 32.592 71.4118 31.824C70.9424 31.0347 70.7078 30.1493 70.7078 29.168C70.7078 27.5253 71.3691 26.2667 72.6918 25.392C74.0144 24.5173 75.9131 24.08 78.3878 24.08H80.6278V23.44C80.6278 22.7147 80.3931 22.1493 79.9238 21.744C79.4544 21.3387 78.8144 21.136 78.0038 21.136C77.0438 21.136 76.1158 21.296 75.2198 21.616C74.3451 21.936 73.6198 22.3733 73.0438 22.928L71.0918 20.336C72.0091 19.5253 73.0864 18.8853 74.3238 18.416C75.5824 17.9253 76.8518 17.68 78.1318 17.68C80.3078 17.68 82.0251 18.192 83.2838 19.216C84.5424 20.2187 85.1718 21.5947 85.1718 23.344V30.544C85.1718 31.056 85.2144 31.664 85.2998 32.368C85.3851 33.072 85.4811 33.616 85.5878 34H81.5238C81.3958 33.7013 81.2998 33.4347 81.2358 33.2C81.1718 32.9653 81.1184 32.6347 81.0758 32.208H81.0118C79.8171 33.616 78.2064 34.32 76.1798 34.32ZM77.3958 30.96C78.3344 30.96 79.1024 30.7253 79.6998 30.256C80.3184 29.7653 80.6278 29.1467 80.6278 28.4V27.056H78.2598C77.2571 27.056 76.4891 27.2373 75.9558 27.6C75.4224 27.9627 75.1558 28.4853 75.1558 29.168C75.1558 29.744 75.3478 30.192 75.7318 30.512C76.1158 30.8107 76.6704 30.96 77.3958 30.96ZM87.7375 21.904C87.7375 20.0907 87.7055 18.7893 87.6415 18H91.9615C92.0468 18.832 92.0895 19.7707 92.0895 20.816V21.136H92.2175C92.6228 20.0907 93.3482 19.2587 94.3935 18.64C95.4602 18 96.6762 17.68 98.0415 17.68C98.3188 17.68 98.6495 17.712 99.0335 17.776V21.328C98.9908 21.3067 98.7775 21.296 98.3935 21.296C97.3055 21.296 96.2922 21.5733 95.3535 22.128C94.4148 22.6827 93.6682 23.4187 93.1135 24.336C92.5588 25.2533 92.2815 26.2453 92.2815 27.312V34H87.7375V21.904ZM115.196 27.664H104.188C104.38 28.624 104.775 29.3387 105.372 29.808C105.991 30.2773 106.823 30.512 107.868 30.512C108.786 30.512 109.586 30.3627 110.268 30.064C110.951 29.7653 111.634 29.2533 112.316 28.528L114.748 30.832C114.13 31.8773 113.159 32.72 111.836 33.36C110.535 34 109.116 34.32 107.58 34.32C105.063 34.32 103.09 33.5947 101.66 32.144C100.231 30.672 99.5163 28.6453 99.5163 26.064C99.5163 23.4613 100.231 21.4133 101.66 19.92C103.09 18.4267 105.052 17.68 107.548 17.68C109.938 17.68 111.804 18.4267 113.148 19.92C114.514 21.392 115.196 23.4293 115.196 26.032V27.664ZM110.716 24.432C110.716 23.4933 110.428 22.7573 109.852 22.224C109.276 21.6693 108.487 21.392 107.484 21.392C106.588 21.392 105.852 21.68 105.276 22.256C104.7 22.8107 104.316 23.6 104.124 24.624H110.716V24.432Z" fill="black"/>
</svg>
